<svg width="32" height="32" viewBox="0 0 32 32" fill="none" xmlns="http://www.w3.org/2000/svg">
<path d="M28.0957 6.60012L18.0289 0.561813C17.4046 0.187125 16.7022 0 16.0006 0C15.2982 0 14.5954 0.187125 13.9715 0.561813L3.90468 6.60012C2.71643 7.313 1.98924 8.59694 1.98924 9.98244V22.0176C1.98924 23.4031 2.71643 24.687 3.90468 25.3999L13.9715 31.4382C14.5954 31.8124 15.2982 32 16.0006 32C16.7022 32 17.4046 31.8124 18.0289 31.4382L28.0957 25.3999C29.2841 24.687 30.0107 23.403 30.0107 22.0176V9.98244C30.0107 8.59694 29.284 7.313 28.0957 6.60012ZM15.6624 30.7958C15.2857 30.7493 14.9169 30.6262 14.5799 30.424L4.51305 24.3857C3.68143 23.8864 3.17205 22.9876 3.17205 22.0176V9.98244C3.17205 9.60606 3.24924 9.24106 3.39193 8.90531L15.6624 16.2653V30.7958ZM3.7293 8.31962C3.93955 8.04062 4.20387 7.79975 4.51305 7.61425L14.5799 1.57594C15.0171 1.31369 15.508 1.18281 16.0006 1.18281C16.4923 1.18281 16.9833 1.31375 17.4204 1.57594L27.4872 7.61425C27.7961 7.79975 28.0612 8.04056 28.271 8.31962L16.0006 15.6801L3.7293 8.31962ZM28.8283 22.0176C28.8283 22.9876 28.3189 23.8864 27.4873 24.3857L17.4205 30.424C17.0832 30.6262 16.7147 30.7493 16.338 30.7958V16.2654L28.6085 8.90537C28.7511 9.24106 28.8284 9.60612 28.8284 9.9825V22.0176H28.8283Z" fill="currentColor"/>
<path d="M23.8964 7.23619C23.2822 6.78094 22.2701 6.76963 21.6365 7.21019C21.0021 7.65075 20.9862 8.3775 21.6004 8.83194C22.2147 9.28675 23.2268 9.29857 23.8604 8.85794C24.4948 8.41694 24.5107 7.69107 23.8964 7.23619Z" fill="currentColor"/>
<path d="M10.3512 7.09775C9.73698 6.64288 8.72486 6.63156 8.09049 7.07213C7.45692 7.51313 7.44098 8.239 8.0548 8.69388C8.66949 9.14913 9.68155 9.16007 10.3151 8.71988C10.9496 8.2785 10.9655 7.55263 10.3512 7.09775Z" fill="currentColor"/>
<path d="M17.0849 7.19388C16.4916 6.75457 15.5139 6.74325 14.9013 7.16913C14.2887 7.595 14.2728 8.29657 14.8665 8.73588C15.4602 9.17513 16.4379 9.1865 17.0504 8.76063C17.6631 8.33475 17.679 7.63319 17.0849 7.19388Z" fill="currentColor"/>
<path d="M5.58055 15.5189C6.27793 15.8991 6.84268 15.6414 6.84268 14.9446C6.84268 14.2472 6.27793 13.374 5.58055 12.9939C4.88318 12.6138 4.31755 12.8709 4.31755 13.5683C4.31755 14.2652 4.88318 15.1388 5.58055 15.5189Z" fill="currentColor"/>
<path d="M12.6288 19.3607C13.3262 19.7408 13.8917 19.4836 13.8917 18.7867C13.8917 18.0893 13.3261 17.2158 12.6288 16.8356C11.9319 16.4559 11.3667 16.7131 11.3667 17.4104C11.3667 18.1074 11.9319 18.9805 12.6288 19.3607Z" fill="currentColor"/>
<path d="M5.58055 22.5676C6.27793 22.9478 6.84268 22.6906 6.84268 21.9933C6.84268 21.2959 6.27793 20.4227 5.58055 20.0426C4.88318 19.6624 4.31755 19.9196 4.31755 20.6169C4.31755 21.3143 4.88318 22.1875 5.58055 22.5676Z" fill="currentColor"/>
<path d="M12.6288 26.4094C13.3262 26.7895 13.8917 26.5323 13.8917 25.835C13.8917 25.138 13.3261 24.2645 12.6288 23.8843C11.9319 23.5045 11.3667 23.7618 11.3667 24.4587C11.3667 25.1561 11.9319 26.0293 12.6288 26.4094Z" fill="currentColor"/>
<path d="M22.6217 17.6819C21.5056 18.2899 20.6018 19.6872 20.6018 20.8024C20.6018 21.9181 21.5056 22.3297 22.6217 21.7217C23.737 21.1134 24.6417 19.7161 24.6417 18.6004C24.6417 17.4851 23.737 17.0735 22.6217 17.6819Z" fill="currentColor"/>
</svg>
