<svg width="32" height="32" viewBox="0 0 32 32" fill="none" xmlns="http://www.w3.org/2000/svg">
<g clip-path="url(#clip0_5_200)">
<path d="M29.6662 7.62132L19.0559 3.76225V4.92244L29.2919 8.65119C29.4101 8.69313 29.5107 8.75219 29.6038 8.82394C29.6494 8.85744 29.6961 8.89938 29.7333 8.94125C30.0154 9.24019 30.1206 9.68569 29.9735 10.1019L22.6715 30.158C22.4574 30.746 21.8046 31.0491 21.2171 30.8345L8.3112 26.1388C8.11795 26.0675 7.95363 25.9498 7.83213 25.7984H6.59601C6.8062 26.4121 7.28132 26.9251 7.93732 27.1649L20.8428 31.8643C21.6622 32.1627 22.5365 31.9528 23.1297 31.3936C23.2134 31.3177 23.2889 31.2338 23.3606 31.1412C23.4993 30.9606 23.6176 30.7585 23.6967 30.5318L30.9986 10.4757C31.4195 9.31969 30.8227 8.04175 29.6662 7.62132Z" fill="currentColor"/>
<path d="M24.8187 11.0279C24.6586 11.4692 24.8867 11.9585 25.3271 12.1186C25.5738 12.2085 25.8354 12.1759 26.0459 12.0539C25.8923 12.3966 25.7163 12.7113 25.5077 12.9599L26.1781 13.2039C26.1781 12.8799 26.2461 12.5251 26.3485 12.1643C26.4314 12.3929 26.6101 12.5856 26.8569 12.6754C27.2974 12.8356 27.7871 12.6079 27.9473 12.1666C28.1074 11.7261 27.8793 11.2373 27.4389 11.0767C27.3951 11.0608 27.3504 11.0488 27.3067 11.0399C27.4576 10.9435 27.5795 10.7978 27.6456 10.6158C27.8068 10.1754 27.5786 9.6855 27.1373 9.52538C26.6969 9.36475 26.208 9.59375 26.0479 10.0338C25.9818 10.2163 25.9808 10.4058 26.0348 10.5771C25.9948 10.5552 25.9529 10.5361 25.9091 10.5198C25.4686 10.3593 24.9789 10.5874 24.8187 11.0279Z" fill="currentColor"/>
<path d="M19.055 23.5698V20.2316C19.0553 20.2321 19.0557 20.2326 19.0557 20.2326C19.2282 20.3801 19.4302 20.4974 19.6528 20.5817C20.6788 20.9514 21.8139 20.4216 22.1873 19.4006C22.3474 18.9588 22.3428 18.5006 22.2003 18.0886C22.1119 17.8194 21.9648 17.5755 21.772 17.3698C21.5904 17.1765 21.3679 17.0169 21.1118 16.9074C21.0783 16.8907 21.0448 16.8781 21.0066 16.8656C20.9061 16.8316 20.8009 16.8023 20.6994 16.7813C20.8046 16.7138 20.9061 16.6341 20.9983 16.5415C21.1324 16.4153 21.2507 16.2687 21.3428 16.1001C21.4015 16.0079 21.448 15.9027 21.4853 15.7975C21.6538 15.3353 21.6418 14.8519 21.4815 14.4274C21.2925 13.9227 20.8977 13.5023 20.3632 13.2835C20.3595 13.2835 20.3549 13.2798 20.3464 13.2798C20.3334 13.2756 20.3166 13.2667 20.3046 13.2626C20.2915 13.2584 20.2747 13.2546 20.2627 13.2499C20.258 13.2458 20.2543 13.2458 20.2496 13.2458C19.8502 13.1116 19.434 13.1159 19.0559 13.2336C19.0559 13.2336 19.0553 13.2341 19.0551 13.2341V2.22725C19.0551 0.99675 18.0578 0.0004375 16.8278 0H3.0935C1.8635 0.0005 0.866688 0.99675 0.866501 2.22725V23.5698C0.866751 24.8003 1.8635 25.7966 3.0935 25.797H16.8277C18.0578 25.7966 19.055 24.8003 19.055 23.5698ZM19.0559 13.6918V19.8248C19.0555 19.8248 19.0555 19.8243 19.0551 19.8239V13.6909C19.0553 13.6914 19.0557 13.6914 19.0559 13.6918ZM1.95919 23.5698V2.22725C1.96038 1.60106 2.46781 1.09406 3.09356 1.09269H16.8278C17.4535 1.09406 17.961 1.60106 17.9619 2.22725V23.5698C17.961 24.1959 17.4535 24.7029 16.8278 24.7039H3.0935C2.46781 24.7029 1.96038 24.1959 1.95919 23.5698Z" fill="currentColor"/>
<path d="M10.0176 8.52543C9.99438 8.47425 9.97713 8.45981 9.96063 8.45981C9.94663 8.46075 9.92713 8.47425 9.90363 8.52543C9.54538 9.31368 8.20288 10.4911 7.3712 11.5786C6.60838 12.5768 6.31526 13.9632 7.26901 14.7817C7.90732 15.3283 8.98651 15.2827 9.60195 14.7007C9.5477 15.6537 9.41157 16.5676 9.1322 17.3372H10.7892C10.5101 16.5677 10.3736 15.6537 10.3199 14.7007C10.9344 15.2827 12.0143 15.3283 12.6524 14.7817C13.6064 13.9632 13.3131 12.5768 12.5504 11.5786C11.7181 10.4911 10.3761 9.31368 10.0176 8.52543Z" fill="currentColor"/>
<path d="M4.60125 2.8935L4.58007 2.86831L4.55819 2.8935C4.42269 3.1915 3.91569 3.6365 3.60169 4.04762C3.31307 4.42475 3.20219 4.94893 3.56282 5.25756C3.80375 5.46431 4.21182 5.44706 4.44413 5.22731C4.42363 5.58718 4.37219 5.93306 4.26675 6.22362H4.89313C4.78725 5.93312 4.736 5.58718 4.71575 5.22731C4.94825 5.44706 5.35588 5.46425 5.59682 5.25756C5.95719 4.94893 5.84632 4.42468 5.55813 4.04762C5.24375 3.6365 4.73719 3.1915 4.60125 2.8935Z" fill="currentColor"/>
<path d="M15.3632 20.3243L15.3419 20.2996L15.32 20.3243C15.1845 20.6227 14.6776 21.0673 14.3632 21.4784C14.0751 21.8556 13.9642 22.3793 14.3246 22.6884C14.5653 22.8947 14.9732 22.8779 15.206 22.6582C15.1855 23.0181 15.1342 23.3639 15.0281 23.6545H15.6548C15.5486 23.364 15.4979 23.0181 15.4774 22.6582C15.7097 22.8779 16.1174 22.8947 16.3585 22.6884C16.7189 22.3793 16.6081 21.8556 16.3194 21.4784C16.0056 21.0673 15.4987 20.6227 15.3632 20.3243Z" fill="currentColor"/>
</g>
<defs>
<clipPath id="clip0_5_200">
<rect width="32" height="32" fill="white"/>
</clipPath>
</defs>
</svg>
